<?xml version="1.0" encoding="UTF-8"?>
<svg class="w-36" width="2230.4" height="755.91" fill="none" version="1.1" viewBox="0 0 2230.4 755.91" xmlns="http://www.w3.org/2000/svg">
 <g stroke-width="16.481">
  <g fill="#1f5186">
   <path d="m332.75 293.25v59.13c-38.808 21.505-83.573 32.237-134.37 32.237-41.246 0-76.261-8.412-105.01-25.279-28.748-16.827-51.498-40.061-68.251-69.627-16.753-29.564-25.111-61.528-25.111-95.927 0-54.648 19.191-100.61 57.534-137.88 38.343-37.27 85.662-55.906 141.88-55.906 38.808 0 81.91 10.3 129.35 30.901v57.793c-43.219-25.083-85.43-37.624-126.68-37.624-41.244 0-77.459 13.564-105.39 40.73-27.935 27.127-41.903 61.135-41.903 101.98 0 40.847 13.735 75.09 41.245 101.59 27.509 26.538 62.68 39.787 105.55 39.787 42.871 0 88.526-13.958 131.2-41.91z"/>
   <path d="m382 4.8758h48.132v160.72c20.119-24.885 45.037-37.348 74.868-37.348 16.211 0 30.759 4.128 43.644 12.345 12.883 8.2561 22.441 19.617 28.709 34.126 6.2678 14.507 9.4025 36.091 9.4025 64.751v140.83h-48.133v-152.93c0-18.085-4.3708-32.671-13.076-43.68-8.7449-11.008-20.236-16.511-34.513-16.511-10.563 0-20.546 2.7903-29.869 8.3346-9.3646 5.5426-19.656 14.782-30.953 27.677v177.11h-48.132v-375.46z"/>
   <path d="m853.14 261.01h-171.13c1.2377 23.667 9.0152 42.461 23.408 56.456 14.355 13.956 32.926 20.954 55.677 20.954 31.726 0 61.015-10.026 87.828-30.114v47.847c-14.818 10.024-29.482 17.18-44.03 21.505-14.548 4.2851-31.611 6.4474-51.189 6.4474-26.813 0-48.48-5.6613-65.079-16.944-16.559-11.283-29.831-26.459-39.812-45.566-9.9827-19.069-14.935-41.164-14.935-66.246 0-37.623 10.485-68.211 31.456-91.761 20.971-23.549 48.209-35.344 81.716-35.344 33.506 0 57.999 11.48 77.228 34.401 19.23 22.92 28.826 53.665 28.826 92.193v6.1722zm-170.09-29.289h122.46c-1.2377-19.54-6.9633-34.558-17.178-45.134s-23.988-15.843-41.244-15.843c-17.257 0-31.418 5.2674-42.446 15.843-11.026 10.576-18.223 25.633-21.551 45.134z"/>
   <path d="m1096.6 200.78v179.51h-48.404v-137.6c0-27.403-3.5979-46.55-10.833-57.361-7.2353-10.851-19.848-16.277-37.841-16.277-10.058 0-19.268 2.3206-27.626 6.9979-8.3955 4.679-17.951 12.897-28.709 24.73v179.51h-48.132v-247.25h48.132v32.513c24.493-24.886 48.481-37.349 71.927-37.349 30.838 0 54.749 14.861 71.695 44.622 25.73-30.114 52.62-45.133 80.672-45.133 23.639 0 43.062 8.7674 58.307 26.341 15.244 17.574 22.866 44.348 22.866 80.359v145.94h-48.132v-146.49c0-20.6-4.1401-36.366-12.42-47.295-8.2802-10.93-20.196-16.396-35.712-16.396-19.926 0-38.536 10.222-55.792 30.627z"/>
   <path d="m1358.2 133.08v56.692l2.6304-4.2851c23.293-38.175 46.546-57.242 69.838-57.242 18.148 0 37.106 9.3177 56.877 27.954l-25.381 43.009c-16.753-16.119-32.269-24.178-46.546-24.178-15.516 0-28.979 7.5088-40.354 22.566s-17.063 32.867-17.063 53.468v129.27h-48.404v-247.25z"/>
   <path d="m1537.9 29.055c7.9308 0 14.701 2.7913 20.351 8.3347 5.6481 5.5433 8.473 12.345 8.473 20.444 0 8.0989-2.8249 14.704-8.473 20.444-5.6497 5.7399-12.42 8.61-20.351 8.61-7.3902 0-13.93-2.9093-19.578-8.728-5.6497-5.8185-8.4746-12.581-8.4746-20.286 0-7.7056 2.8249-14.193 8.4746-20.011 5.6482-5.8187 12.148-8.728 19.578-8.728zm-23.796 104.03h48.132v247.25h-48.132z"/>
   <path d="m1671.8 133.08v31.452c21.524-24.179 45.933-36.288 73.292-36.288 15.163 0 29.254 3.9708 42.324 11.952 13.037 7.981 22.975 18.911 29.749 32.788 6.7738 13.879 10.185 35.894 10.185 65.971v141.38h-48.142v-140.83c0-25.281-3.7907-43.326-11.372-54.138-7.5813-10.85-20.272-16.275-38.072-16.275-22.744 0-42.06 11.558-57.915 34.675v176.56h-49.182v-247.25h49.182z"/>
   <path d="m1873.9 218.55c0-26.34 9.4767-47.178 28.43-62.47 18.97-15.333 44.845-22.96 77.627-22.96h100.24v38.175h-49.164c9.5096 9.8673 16.135 18.831 19.843 26.891 3.7083 8.0593 5.5706 17.299 5.5706 27.677 0 12.897-3.5929 25.595-10.828 38.019-7.2353 12.461-16.531 21.976-27.903 28.62-11.372 6.6452-30.029 11.913-55.954 15.845-18.146 2.6732-27.227 9.0416-27.227 19.067 0 5.7404 3.3951 10.457 10.169 14.115 6.7738 3.6555 19.069 7.4693 36.918 11.44 29.782 6.6452 48.982 11.835 57.536 15.57 8.5373 3.7742 16.25 9.1207 23.123 16.119 11.652 11.834 17.454 26.695 17.454 44.623 0 23.471-10.284 42.184-30.803 56.18-20.536 13.958-48.01 20.956-82.373 20.956-34.347 0-62.447-7.0375-83.181-21.112-20.733-14.075-31.067-32.906-31.067-56.573 0-33.496 20.354-55.08 61.096-64.751-16.218-10.576-24.343-21.033-24.343-31.453 0-7.8632 3.494-15.057 10.449-21.505 6.9716-6.4474 16.366-11.206 28.166-14.232-35.781-16.12-53.696-42.185-53.696-78.198zm79.077 173.34c-16.201 0-29.468 3.499-39.802 10.497-10.334 6.9979-15.476 15.962-15.476 26.892 0 25.435 22.546 38.174 67.705 38.174 21.327 0 37.874-3.1842 49.608-9.5525 11.718-6.37 17.602-15.372 17.602-27.009 0-11.637-7.4001-20.837-22.217-28.071-14.817-7.2732-33.935-10.891-57.371-10.891zm11.388-216.35c-13.037 0-24.145 4.4812-33.325 13.445-9.1636 8.9641-13.729 19.697-13.729 32.239 0 12.541 4.4829 23.235 13.498 31.57 8.9823 8.3346 20.354 12.501 34.133 12.501s24.92-4.2456 33.968-12.776c9.0976-8.4928 13.614-19.108 13.614-31.845 0-12.738-4.5983-23.669-13.729-32.239-9.1636-8.6098-20.618-12.895-34.396-12.895z"/>
  </g>
  <path d="m2230.4 2.2412h-48.834v749.34h48.834z" fill="#66a0ad"/>
  <g fill="#1f5186">
   <path d="m1512.8 538.89h28.71v214.54h-26.001l-141.15-165.24v165.24h-28.399v-214.54h24.491l142.38 166.62v-166.62z"/>
   <path d="m1646.4 611.82c21.162 0 38.731 6.9205 52.74 20.798 14.009 13.879 21.014 31.295 21.014 52.288 0 20.995-7.1199 37.31-21.327 50.756-14.19 13.447-32.072 20.208-53.663 20.208-21.587 0-38.302-6.8397-52.308-20.483-14.007-13.681-21.01-30.744-21.01-51.227s7.0803-37.899 21.243-51.659c14.161-13.76 31.919-20.641 53.279-20.641zm-1.5492 25.201c-13.188 0-24.021 4.4038-32.494 13.21-8.4746 8.8059-12.69 20.012-12.69 33.613 0 13.604 4.3329 24.532 12.999 33.104 8.6675 8.5307 19.81 12.816 33.389 12.816 13.581 0 24.574-4.3247 33.16-12.974 8.6362-8.6494 12.921-19.736 12.921-33.259 0-13.524-4.4829-24.534-13.465-33.34-8.9658-8.8059-20.239-13.21-33.852-13.21z"/>
   <path d="m1746.4 538.89h27.507v83.387c11.883-8.8059 24.574-13.21 38.072-13.21 17.651 0 32.04 6.7622 43.23 20.287 11.174 13.524 16.794 30.861 16.794 52.053 0 22.724-6.7079 40.808-20.041 54.294-13.35 13.445-31.232 20.208-53.597 20.208-8.9822 0-18.41-0.98393-28.315-2.9106-9.9547-1.925-17.8-4.4021-23.651-7.3506v-206.72zm27.507 110.08v76.468c9.3778 2.8694 19.003 4.2851 28.875 4.2851 12.18 0 22.134-4.4038 29.831-13.21 7.6968-8.8076 11.57-20.13 11.57-33.93 0-13.798-3.6094-25.435-10.795-34.243-7.2023-8.8059-16.597-13.21-28.216-13.21-10.284 0-20.7 4.5999-31.298 13.839z"/>
   <path d="m2017.7 685.22h-97.767c0.6922 13.524 5.1422 24.257 13.383 32.239 8.2076 7.9802 18.805 11.99 31.809 11.99 18.146 0 34.858-5.7388 50.185-17.18v27.324c-8.4879 5.7388-16.877 9.8278-25.15 12.265-8.323 2.4376-18.08 3.6967-29.254 3.6967-15.328 0-27.705-3.2254-37.182-9.6728-9.4767-6.4474-17.075-15.136-22.761-26.026-5.686-10.891-8.5373-23.51-8.5373-37.861 0-21.505 5.9827-39 17.981-52.447 11.998-13.445 27.557-20.208 46.708-20.208 19.151 0 33.16 6.5661 44.137 19.659 10.993 13.091 16.481 30.665 16.481 52.681v3.5385zm-97.157-16.748h69.996c-0.6922-11.164-3.9885-19.774-9.8228-25.79-5.8509-6.0552-13.696-9.0432-23.568-9.0432-9.8722 0-17.948 3.0276-24.26 9.0432-6.2959 6.0536-10.4 14.625-12.295 25.79z"/>
   <path d="m2045 538.89h27.507v214.54h-27.507z"/>
  </g>
 </g>
</svg>
